<svg xmlns="http://www.w3.org/2000/svg" xmlns:xlink="http://www.w3.org/1999/xlink" viewBox="580 10 540 240"><defs><linearGradient id="gradient_0" gradientUnits="userSpaceOnUse" x1="203.13695" y1="252.91931" x2="1067.3799" y2="315.27295"><stop offset="0" stop-color="#1F74A4"/><stop offset="1" stop-color="#39B9BE"/></linearGradient><linearGradient id="gradient_1" gradientUnits="userSpaceOnUse" x1="334.6665" y1="302.3909" x2="878.16803" y2="386.95709"><stop offset="0" stop-color="#247BA6"/><stop offset="1" stop-color="#33AAB8"/></linearGradient></defs><path fill="url(#gradient_0)" d="M831.34 12.0461C835.036 11.9551 838.725 12.4029 842.292 13.3753C854.216 16.7537 859.721 24.6032 865.473 34.7151C880.707 34.9422 910.181 36.6355 922.716 44.971C940.016 56.476 920.718 99.769 912.057 112.589C943.941 109.972 986.399 105.427 1017.86 105.101C1022.04 96.437 1028.26 87.6358 1037.42 84.011C1065.75 72.8 1091.1 99.3427 1080.73 127.402C1074.25 144.913 1053.45 150.9 1037.23 144.654C1028.7 141.369 1021.29 132.711 1017.94 124.312C1001.47 125.518 985.335 126.079 968.917 127.079L897.635 131.737C890.272 137.344 881.703 147.039 875.289 154.018C903.482 157.818 918.174 162.892 944.073 173.211C951.204 167.938 954.733 163.342 964.131 161.605C992.867 156.296 1013.1 186.611 997.248 211.167C984.604 230.749 953.901 231.094 942.299 210.467C939.082 204.747 938.135 197.974 937.081 191.557C931.048 187.919 923.731 185.568 917.13 183.203C900.25 177.155 883.002 173.539 865.243 171.245C855.1 169.936 844.951 169.192 834.752 168.011C820.518 166.362 808.073 163.475 794.403 159.301C788.509 163.292 784.177 165.918 776.687 164.141C771.4 162.846 766.862 159.468 764.106 154.775C761.484 150.333 760.759 145.024 762.093 140.042C764.949 129.227 776.034 124.371 786.422 127.038C794.072 129.002 797.926 136.735 801.479 143.131C809.74 144.672 843.037 153.186 849.482 148.752C876.127 130.42 909.871 94.9726 910.099 60.7208C900.169 53.8643 878.065 53.7893 865.989 53.4719C864.592 60.2791 861.332 66.5649 856.573 71.6292C841.047 87.9051 818.886 84.2134 803.769 69.4744C796.623 73.1342 788.774 78.2715 781.813 82.4804C770.965 89.1563 759.891 95.457 748.611 101.371C743.382 104.115 738.059 106.765 732.859 109.543C696.686 128.869 658.837 144.45 621.421 161.092C611.513 165.925 580.953 179.481 574.52 185.134C572.239 237.099 567.887 308.835 507.275 324.857C483.363 331.178 460.916 330.764 436.604 331.691C423.302 332.198 403.014 333.76 391.91 341.05C381.794 347.691 371.37 366.044 363.222 375.819C355.632 384.926 348.156 394.622 340.289 403.527C321.027 425.217 300.543 445.791 278.936 465.146C268.321 474.775 256.747 483.928 246.536 493.857C247.346 495.387 248.344 497.279 248.904 498.907C251.617 506.641 251.041 515.148 247.313 522.446C238.642 539.309 218.058 545.55 201.315 536.656C193.498 532.463 187.71 525.285 185.27 516.757C183.185 509.707 183.783 500.653 187.37 494.184C191.854 486.079 199.404 480.114 208.327 477.627C216.932 475.249 225.062 475.954 232.832 480.332C239.02 476.138 250.331 465.768 256.423 460.431C286.839 434.275 314.942 405.545 340.419 374.56C354.088 357.723 366.463 339.039 381.025 322.6C411.716 287.954 447.421 254.547 482.799 224.814C516.11 196.818 554.325 172.537 593.627 153.956C623.148 139.999 653.467 127.055 683.133 113.08C721.61 94.9766 759.058 74.762 795.306 52.5286C795.82 41.4089 796.664 32.6015 804.581 23.8564C811.795 15.8878 820.842 12.5961 831.34 12.0461Z"/><path fill="#FAFBFA" d="M830.301 29.3121C840.065 28.8396 848.414 36.2611 849.089 46.0125C849.764 55.7638 842.517 64.2647 832.781 65.1418C826.301 65.7255 820.012 62.7597 816.34 57.3888C812.668 52.0179 812.188 45.0815 815.085 39.256C817.982 33.4305 823.802 29.6267 830.301 29.3121Z"/><path fill="#FAFBFA" d="M1046.1 99.3236C1051.65 97.8456 1057.57 99.47 1061.58 103.575C1065.6 107.679 1067.09 113.628 1065.49 119.143C1063.89 124.657 1059.45 128.883 1053.86 130.2C1045.39 132.198 1036.88 127.023 1034.76 118.582C1032.64 110.142 1037.69 101.564 1046.1 99.3236Z"/><path fill="#FAFBFA" d="M967.096 177.925C975.561 176.309 983.754 181.794 985.485 190.235C987.217 198.677 981.844 206.943 973.426 208.789C967.878 210.006 962.104 208.142 958.314 203.912C954.525 199.681 953.306 193.738 955.124 188.357C956.942 182.976 961.516 178.99 967.096 177.925Z"/><path fill="#FAFBFA" d="M780.417 137.537C784.698 137.399 788.327 140.661 788.643 144.933C788.96 149.204 785.852 152.966 781.597 153.46C778.682 153.799 775.816 152.513 774.131 150.111C772.447 147.708 772.214 144.575 773.527 141.951C774.839 139.326 777.484 137.632 780.417 137.537Z"/><path fill="url(#gradient_1)" d="M606.946 203.793C613.134 199.772 619.384 192.539 625.881 188.326C646.799 174.396 669.722 164.514 694.753 161.146C710.954 158.966 728.017 158.746 743.519 164.912C758.209 170.756 772.382 178.715 787.577 183.185C807.944 189.178 830.508 192.161 851.593 193.213C862.478 193.743 873.372 194.081 884.27 194.225C890.132 194.331 896.14 194.292 901.973 194.708C905.749 194.978 908.199 196.444 908.646 200.257C907.171 203.368 900.78 204.627 897.572 205.141C867.648 209.939 834.161 212.949 804.389 205.877C800.076 208.429 794.217 214.119 790.162 217.552C783.291 223.362 776.125 228.814 768.691 233.885C717.577 268.107 661.072 285.936 599.511 283.011C597.331 288.5 594.13 295.645 591.258 300.706C566.147 344.954 532.367 362.498 482.762 367.177C470.642 368.972 457.892 367.863 446.05 371.13C442.509 372.108 439.641 374.168 436.815 376.495C425.08 386.154 416.117 398.898 405.941 410.184C398.458 418.484 391.169 427.291 383.843 435.751C379.093 441.238 371.494 449.711 368.196 456.037C369.102 457.697 369.942 459.391 370.714 461.117C378.032 477.52 372.777 496.939 355.535 504.184C346.38 507.995 337.859 508.246 328.482 504.858C326.832 504.452 324.406 503.049 322.96 502.127C300.507 487.811 303.558 454.832 328.008 444.355C336.886 440.55 343.41 442.004 352.756 442.882C358.338 437.664 364.904 429.115 369.882 423.088C378.813 412.366 387.869 401.747 397.046 391.234C423.295 360.948 429.641 350.682 470.459 349.614C491.976 349.051 523.314 342.538 540.846 330.002C551.968 322.049 562.554 311.201 569.892 299.552C577.221 289.027 580.648 275.008 588.193 265.125C589.645 263.223 607.288 264.411 610.161 264.492C619.204 264.814 628.258 264.553 637.266 263.71C685.308 259.032 744.046 233.497 779.82 201.027C746.073 189.58 730.757 171.744 691.519 179.865C670.854 184.142 632.397 197.54 620.003 214.834C621.692 222.438 622.089 229.624 616.555 235.93C609.357 244.134 595.822 243.752 588.063 236.55C584.449 233.247 582.344 228.609 582.237 223.715C582.133 218.37 584.515 212.074 588.35 208.319C593.721 203.06 600.171 203.598 606.946 203.793Z"/><path fill="#FAFBFA" d="M601.034 214.164C609.742 215.285 613.729 225.729 603.737 230.562C591.978 229.494 590.663 219.756 601.034 214.164Z"/></svg>
