<?xml version="1.0" encoding="utf-8" ?><svg xmlns="http://www.w3.org/2000/svg" xmlns:xlink="http://www.w3.org/1999/xlink" width="1152" height="760" viewBox="0 0 1152 760"><path fill="#FAFBFA" d="M0 0L1152 0L1152 760L0 760L0 0Z"/><defs><linearGradient id="gradient_0" gradientUnits="userSpaceOnUse" x1="203.13695" y1="252.91931" x2="1067.3799" y2="315.27295"><stop offset="0" stop-color="#1F74A4"/><stop offset="1" stop-color="#39B9BE"/></linearGradient></defs><path fill="url(#gradient_0)" d="M831.34 12.0461C835.036 11.9551 838.725 12.4029 842.292 13.3753C854.216 16.7537 859.721 24.6032 865.473 34.7151C880.707 34.9422 910.181 36.6355 922.716 44.971C940.016 56.476 920.718 99.769 912.057 112.589C943.941 109.972 986.399 105.427 1017.86 105.101C1022.04 96.437 1028.26 87.6358 1037.42 84.011C1065.75 72.8 1091.1 99.3427 1080.73 127.402C1074.25 144.913 1053.45 150.9 1037.23 144.654C1028.7 141.369 1021.29 132.711 1017.94 124.312C1001.47 125.518 985.335 126.079 968.917 127.079L897.635 131.737C890.272 137.344 881.703 147.039 875.289 154.018C903.482 157.818 918.174 162.892 944.073 173.211C951.204 167.938 954.733 163.342 964.131 161.605C992.867 156.296 1013.1 186.611 997.248 211.167C984.604 230.749 953.901 231.094 942.299 210.467C939.082 204.747 938.135 197.974 937.081 191.557C931.048 187.919 923.731 185.568 917.13 183.203C900.25 177.155 883.002 173.539 865.243 171.245C855.1 169.936 844.951 169.192 834.752 168.011C820.518 166.362 808.073 163.475 794.403 159.301C788.509 163.292 784.177 165.918 776.687 164.141C771.4 162.846 766.862 159.468 764.106 154.775C761.484 150.333 760.759 145.024 762.093 140.042C764.949 129.227 776.034 124.371 786.422 127.038C794.072 129.002 797.926 136.735 801.479 143.131C809.74 144.672 843.037 153.186 849.482 148.752C876.127 130.42 909.871 94.9726 910.099 60.7208C900.169 53.8643 878.065 53.7893 865.989 53.4719C864.592 60.2791 861.332 66.5649 856.573 71.6292C841.047 87.9051 818.886 84.2134 803.769 69.4744C796.623 73.1342 788.774 78.2715 781.813 82.4804C770.965 89.1563 759.891 95.457 748.611 101.371C743.382 104.115 738.059 106.765 732.859 109.543C696.686 128.869 658.837 144.45 621.421 161.092C611.513 165.925 580.953 179.481 574.52 185.134C572.239 237.099 567.887 308.835 507.275 324.857C483.363 331.178 460.916 330.764 436.604 331.691C423.302 332.198 403.014 333.76 391.91 341.05C381.794 347.691 371.37 366.044 363.222 375.819C355.632 384.926 348.156 394.622 340.289 403.527C321.027 425.217 300.543 445.791 278.936 465.146C268.321 474.775 256.747 483.928 246.536 493.857C247.346 495.387 248.344 497.279 248.904 498.907C251.617 506.641 251.041 515.148 247.313 522.446C238.642 539.309 218.058 545.55 201.315 536.656C193.498 532.463 187.71 525.285 185.27 516.757C183.185 509.707 183.783 500.653 187.37 494.184C191.854 486.079 199.404 480.114 208.327 477.627C216.932 475.249 225.062 475.954 232.832 480.332C239.02 476.138 250.331 465.768 256.423 460.431C286.839 434.275 314.942 405.545 340.419 374.56C354.088 357.723 366.463 339.039 381.025 322.6C411.716 287.954 447.421 254.547 482.799 224.814C516.11 196.818 554.325 172.537 593.627 153.956C623.148 139.999 653.467 127.055 683.133 113.08C721.61 94.9766 759.058 74.762 795.306 52.5286C795.82 41.4089 796.664 32.6015 804.581 23.8564C811.795 15.8878 820.842 12.5961 831.34 12.0461Z"/><path fill="#FAFBFA" d="M554.618 195.733C554.928 196.02 555.219 196.669 555.202 197.066C553.666 232.801 548.932 288.03 510.867 304.166C494.976 310.902 468.93 311.704 451.769 312.752C439.259 313.554 426.757 314.48 414.265 315.532L413.79 314.969C421.662 306.117 430.652 297.853 439.162 289.515C464.003 265.176 490.637 241.142 518.41 220.221C529.668 211.74 542.775 203.347 554.618 195.733Z"/><path fill="#FAFBFA" d="M830.301 29.3121C840.065 28.8396 848.414 36.2611 849.089 46.0125C849.764 55.7638 842.517 64.2647 832.781 65.1418C826.301 65.7255 820.012 62.7597 816.34 57.3888C812.668 52.0179 812.188 45.0815 815.085 39.256C817.982 33.4305 823.802 29.6267 830.301 29.3121Z"/><path fill="#FAFBFA" d="M1046.1 99.3236C1051.65 97.8456 1057.57 99.47 1061.58 103.575C1065.6 107.679 1067.09 113.628 1065.49 119.143C1063.89 124.657 1059.45 128.883 1053.86 130.2C1045.39 132.198 1036.88 127.023 1034.76 118.582C1032.64 110.142 1037.69 101.564 1046.1 99.3236Z"/><path fill="#FAFBFA" d="M214.346 493.36C222.751 491.55 231.065 496.776 233.077 505.134C235.089 513.492 230.064 521.929 221.756 524.141C216.202 525.62 210.282 523.973 206.289 519.838C202.296 515.703 200.858 509.729 202.532 504.23C204.205 498.731 208.727 494.571 214.346 493.36Z"/><path fill="#FAFBFA" d="M967.096 177.925C975.561 176.309 983.754 181.794 985.485 190.235C987.217 198.677 981.844 206.943 973.426 208.789C967.878 210.006 962.104 208.142 958.314 203.912C954.525 199.681 953.306 193.738 955.124 188.357C956.942 182.976 961.516 178.99 967.096 177.925Z"/><path fill="#FAFBFA" d="M780.417 137.537C784.698 137.399 788.327 140.661 788.643 144.933C788.96 149.204 785.852 152.966 781.597 153.46C778.682 153.799 775.816 152.513 774.131 150.111C772.447 147.708 772.214 144.575 773.527 141.951C774.839 139.326 777.484 137.632 780.417 137.537Z"/><defs><linearGradient id="gradient_1" gradientUnits="userSpaceOnUse" x1="334.6665" y1="302.3909" x2="878.16803" y2="386.95709"><stop offset="0" stop-color="#247BA6"/><stop offset="1" stop-color="#33AAB8"/></linearGradient></defs><path fill="url(#gradient_1)" d="M606.946 203.793C613.134 199.772 619.384 192.539 625.881 188.326C646.799 174.396 669.722 164.514 694.753 161.146C710.954 158.966 728.017 158.746 743.519 164.912C758.209 170.756 772.382 178.715 787.577 183.185C807.944 189.178 830.508 192.161 851.593 193.213C862.478 193.743 873.372 194.081 884.27 194.225C890.132 194.331 896.14 194.292 901.973 194.708C905.749 194.978 908.199 196.444 908.646 200.257C907.171 203.368 900.78 204.627 897.572 205.141C867.648 209.939 834.161 212.949 804.389 205.877C800.076 208.429 794.217 214.119 790.162 217.552C783.291 223.362 776.125 228.814 768.691 233.885C717.577 268.107 661.072 285.936 599.511 283.011C597.331 288.5 594.13 295.645 591.258 300.706C566.147 344.954 532.367 362.498 482.762 367.177C470.642 368.972 457.892 367.863 446.05 371.13C442.509 372.108 439.641 374.168 436.815 376.495C425.08 386.154 416.117 398.898 405.941 410.184C398.458 418.484 391.169 427.291 383.843 435.751C379.093 441.238 371.494 449.711 368.196 456.037C369.102 457.697 369.942 459.391 370.714 461.117C378.032 477.52 372.777 496.939 355.535 504.184C346.38 507.995 337.859 508.246 328.482 504.858C326.832 504.452 324.406 503.049 322.96 502.127C300.507 487.811 303.558 454.832 328.008 444.355C336.886 440.55 343.41 442.004 352.756 442.882C358.338 437.664 364.904 429.115 369.882 423.088C378.813 412.366 387.869 401.747 397.046 391.234C423.295 360.948 429.641 350.682 470.459 349.614C491.976 349.051 523.314 342.538 540.846 330.002C551.968 322.049 562.554 311.201 569.892 299.552C577.221 289.027 580.648 275.008 588.193 265.125C589.645 263.223 607.288 264.411 610.161 264.492C619.204 264.814 628.258 264.553 637.266 263.71C685.308 259.032 744.046 233.497 779.82 201.027C746.073 189.58 730.757 171.744 691.519 179.865C670.854 184.142 632.397 197.54 620.003 214.834C621.692 222.438 622.089 229.624 616.555 235.93C609.357 244.134 595.822 243.752 588.063 236.55C584.449 233.247 582.344 228.609 582.237 223.715C582.133 218.37 584.515 212.074 588.35 208.319C593.721 203.06 600.171 203.598 606.946 203.793Z"/><path fill="#2182A8" d="M328.482 504.858C330.912 503.074 351.845 503.642 355.535 504.184C346.38 507.995 337.859 508.246 328.482 504.858Z"/><path fill="#FAFBFA" d="M336.888 459.429C345.274 457.116 353.941 462.067 356.208 470.466C358.474 478.864 353.474 487.503 345.063 489.722C336.717 491.924 328.16 486.973 325.911 478.64C323.663 470.307 328.567 461.723 336.888 459.429Z"/><path fill="#FAFBFA" d="M601.034 214.164C609.742 215.285 613.729 225.729 603.737 230.562C591.978 229.494 590.663 219.756 601.034 214.164Z"/><path fill="#EA7710" d="M65.6002 487.435C86.1918 466.59 144.171 452.032 172.799 447.281C185.243 445.212 197.757 443.493 210.205 441.454C218.541 440.29 222.886 432.912 231.569 432.946C237.445 432.968 252.337 435.646 250.13 443.817C245.919 459.407 226.481 451.403 217.22 450.314C208.849 450.681 197.959 452.204 189.981 453.835C160.335 459.893 128.668 464.316 102.396 480.174C92.7514 485.995 80.0693 498.592 89.8652 509.541C112.371 534.697 161.896 543.39 193.39 547.935C248.512 555.373 304.231 557.385 359.747 553.942C364.274 553.689 379.928 553.401 382.408 550.813C382.075 547.762 377.659 546.013 375.037 544.523C363.233 545.022 351.204 546.761 339.466 547.25C309.332 548.506 271.75 549.355 242.092 544.991C246.288 540.692 249.798 538.215 254.905 535.028C271.373 535.966 288.161 537.137 304.624 537.22C329.05 537.175 353.454 535.744 377.719 532.935C389.429 538.229 408.458 551.404 417.703 560.39C401.89 561.393 384.993 564.722 369.148 566.026C346.823 567.865 322.834 569.297 300.468 569.324C281.063 569.186 261.669 568.34 242.326 566.788C234.31 566.151 216.595 564.092 209.323 564.237C204.779 566.775 193.798 577.799 187.829 582.299C150.805 575.629 79.5372 561.144 57.4359 528.38C56.8909 527.564 56.402 526.712 55.9727 525.829C47.8974 511.516 54.1741 497.518 65.6002 487.435Z"/><path fill="#CF5D05" d="M65.6002 487.435L65.8338 488.263C61.8811 493.672 58.2262 499.089 55.1526 505.35C52.4124 510.932 57.6557 522.722 55.9727 525.829C47.8974 511.516 54.1741 497.518 65.6002 487.435Z"/><path fill="#0D3952" d="M928.45 613.321C951.859 612.083 976.494 620.087 988.329 641.789C999.257 661.828 997.73 690 982.238 707.323C975.873 714.442 969.903 718.25 961.673 722.681C973.358 728.839 985.585 733.128 997.181 739.663C995.28 743.878 992.75 747.99 990.193 751.832C987.042 750.608 983.286 748.607 980.198 747.071C968.012 741.078 954.924 734.023 942.393 728.919C937.853 727.377 931.979 727.549 927.284 727.36C898.238 726.189 874.16 706.737 872.308 676.942C870.02 640.135 891.973 615.563 928.45 613.321Z"/><path fill="#FAFBFA" d="M928.408 626.099C953.039 623.259 975.31 640.92 978.154 665.549C980.998 690.177 963.338 712.449 938.708 715.296C914.074 718.143 891.796 700.481 888.951 675.848C886.107 651.215 903.773 628.941 928.408 626.099Z"/><path fill="#EA7710" d="M396.879 442.298C438.511 447.034 476.437 454.507 514.761 472.968C547.108 488.549 567.449 516.273 531.498 543.186C508.336 560.525 476.676 568.969 448.906 575.493C380.14 591.213 308.216 593.429 238.088 588.01C226.607 587.123 215.211 586.599 203.757 584.928C202.999 584.817 202.242 584.698 201.486 584.571C204.966 579.925 208.615 575.085 213.669 572.028C226.524 572.055 241.625 574.588 254.97 575.109C312.41 577.354 381.539 577.084 437.577 563.223C441.27 559.894 456.673 557.568 461.898 555.926C467.677 554.109 473.547 551.814 479.35 550.095L478.256 547.179C473.924 545.29 443.208 559.512 438.888 555.959C428.558 551.218 408.181 537.353 399.041 529.935C418.662 526.667 455.575 519.816 467.827 502.654L468.222 502.096C461.083 489.427 443.252 480.976 427.847 478.89C421.332 478.008 406.519 482.2 400.514 473.844C393.771 461.793 421.739 460.171 426.942 463.187C435.159 467.95 439.049 471.393 448.571 473.717C460.214 477.01 470.669 483.585 479.695 491.869C481.111 498.502 483.197 503.797 479.082 509.727C471.006 521.363 455.778 526.067 443.029 530.626C438.916 532.097 434.262 534.142 430.383 535.381C433.804 538.387 435.46 539.823 439.264 542.236C457.69 540.741 484.768 531.303 499.539 521.48C556.973 483.282 443.856 457.899 418.895 454.33C412.74 453.449 396.711 451.383 392.545 448.977C392.602 447.246 395.692 443.702 396.879 442.298Z"/><path fill="#FBF2BE" d="M519.023 521.138L521.177 520.263C521.865 521.654 521.159 521.466 521.139 523.048C504.98 545.056 474.673 553.47 449.453 560.419C445.703 561.453 441.412 562.552 437.577 563.223C441.27 559.894 456.673 557.568 461.898 555.926C467.677 554.109 473.547 551.814 479.35 550.095L478.256 547.179C473.924 545.29 443.208 559.512 438.888 555.959C462.235 550.762 503.635 539.779 519.023 521.138Z"/><path fill="#EECB5E" d="M519.023 521.138C522.519 516.321 524.409 513.441 527.314 508.14C526.605 511.798 524.643 520.877 521.139 523.048C521.159 521.466 521.865 521.654 521.177 520.263L519.023 521.138Z"/><path fill="#0D3952" d="M750.718 645.389C758.204 644.81 766.877 646.882 774.377 647.309C781.558 647.717 789.691 647.49 796.937 647.423L796.996 655.157C793.821 655.845 788.574 656.288 785.208 656.673C789.716 666.049 790.522 674.893 785.859 684.536C779.899 696.861 763.253 696.411 751.688 696.003C747.478 695.854 741.262 694.591 737.331 695.822C735.546 698.279 735.158 704.311 737.862 705.171C759.649 712.1 799.285 700.45 792.903 739.702C787.026 756.781 772.535 756.656 756.831 757.176C748.567 757.449 740.656 756.805 732.516 755.433C710.829 751.778 707.801 725.732 726.251 714.834C719.828 705.765 720.114 699.966 727.287 691.5C721.39 685.765 718.46 681.273 717.699 672.75C717.123 666.31 718.506 659.232 722.962 654.362C730.853 645.736 740.034 646.091 750.718 645.389Z"/><path fill="#FAFBFA" d="M736.07 718.725C737.179 718.69 738.288 718.707 739.395 718.776C746.773 719.268 754.299 720.22 761.658 721.01C769.054 721.803 773.364 722.375 778.449 728.18C779.107 735.657 778.806 740.337 771.124 743.576C762.922 745.357 738.698 746.421 732.481 739.843C725.413 732.366 729.679 724.634 736.07 718.725Z"/><path fill="#FAFBFA" d="M750.846 656.623C757.078 656.67 764.066 656.309 769.219 660.386C772.136 662.704 773.938 666.147 774.18 669.865C775.021 681.191 765.432 683.799 756.532 684.18C750.154 684.204 742.749 684.587 737.462 680.368C734.789 678.215 733.105 675.07 732.795 671.652C732.508 668.122 733.675 664.627 736.027 661.978C740.194 657.208 745.101 657.003 750.846 656.623Z"/><path fill="#0D3952" d="M442.923 645.887C456.183 644.201 470.749 649.301 475.263 663.078C484.397 690.958 479.7 733.627 440.246 727.185C431.529 725.761 426.295 723.029 418.333 719.427L418.456 738.089C418.495 743.789 418.713 750.234 418.129 755.83C413.491 756.142 407.565 756.115 402.833 756.213L403.088 647.522L416.502 647.997C416.743 651.401 416.775 655.36 416.888 658.813C426.373 651.584 430.867 647.414 442.923 645.887Z"/><path fill="#FAFBFA" d="M441.276 658.778C441.829 658.751 442.381 658.728 442.934 658.709C458.104 658.184 462.9 671.568 462.715 684.444C462.467 701.667 461.237 714.183 440.85 714.228C432.303 713.15 425.103 712.142 418.545 705.967L418.541 670.816C424.21 663.28 432.256 660.181 441.276 658.778Z"/><path fill="#0D3952" d="M659.757 645.386C670.192 645.492 681.277 646.508 689.083 653.399C705.478 667.873 705.544 714.291 682.793 723.541C675.319 726.579 669.519 727.214 661.85 727.58C628.511 727.948 619.283 708.144 621.945 677.666C623.99 654.241 638.006 646.41 659.757 645.386Z"/><path fill="#FAFBFA" d="M658.292 658.274C672.738 657.993 682.163 662.752 683.757 678.058C685.411 693.946 684.644 712.439 665.337 714.351C648.996 714.388 639.798 711.897 638.262 693.274C636.85 676.159 638.38 660.111 658.292 658.274Z"/><path fill="#0D3952" d="M335.354 646.029C338.614 645.669 342.084 645.716 345.323 645.512C382.094 643.194 379.803 663.521 379.742 692.288C379.678 703.568 379.71 714.848 379.837 726.128L366.841 726.083C366.529 722.147 366.281 718.206 366.099 714.261C357.336 719.366 351.2 725.503 340.173 726.953C330.477 728.227 323.942 727.872 316.02 722.192C310.029 716.025 308.272 711.52 308.038 702.71C307.849 695.572 309.185 688.551 314.426 683.293C316.957 680.759 320.107 678.93 323.564 677.988C329.878 676.293 355.705 677.121 363.959 677.206C363.939 672.662 364.209 664.969 360.78 661.895C352.745 654.691 325.709 659.415 313.983 659.752C313.294 656.393 313.151 653.105 312.918 649.691C320.058 647.52 327.94 646.724 335.354 646.029Z"/><path fill="#FAFBFA" d="M338.577 688.157L363.462 688.589C363.509 693.539 363.443 698.49 363.263 703.437C357.925 707.958 353.953 709.929 347.758 712.832C341.543 714.707 332.994 715.929 327.729 711.228C322.722 706.756 321.554 696.663 326.423 691.647C330.105 687.852 333.741 688.213 338.577 688.157Z"/><path fill="#0D3952" d="M257.823 645.403C268.651 645.543 276.52 645.972 285.569 653.356C296.626 661.229 297.446 689.494 281.788 692.091C268.267 694.334 250.053 693.26 236.049 693.471C237.009 699.97 237.648 705.064 243.216 709.454C252.726 716.952 273.645 713.966 285.054 712.818C286.804 712.612 287.939 712.249 289.448 713.073C291.045 715.442 290.751 719.489 290.907 722.615C274.664 729.53 245.484 731.042 231.259 719.308C216.099 706.803 216.112 670.857 228.085 656.398C235.26 647.734 247.391 645.876 257.823 645.403Z"/><path fill="#FAFBFA" d="M255.103 658.26C261.616 657.964 267.612 657.583 273 662.106C276.021 664.633 277.871 668.291 278.117 672.222C278.835 683.723 267.685 681.507 259.784 681.571L235.771 681.309C236.71 666.393 239.3 660.231 255.103 658.26Z"/><path fill="#0D3952" d="M526.505 611.017C531.085 610.809 549.364 610.335 552.002 613.381C552.399 615.975 551.477 620.466 551.033 623.242C546.874 623.129 542.63 622.907 538.476 622.755C530.075 622.448 526.017 623.27 521.534 630.625C521.219 636.019 521.349 642.405 521.346 647.884C529.564 647.572 538.027 647.61 546.269 647.548L546.085 659.772C538.042 660.008 529.309 659.825 521.217 659.806L521.28 704.893C521.307 712.133 521.315 718.909 520.979 726.134L505.656 726.082L505.588 660.215C501.072 659.793 494.922 659.904 490.278 659.856C490.245 655.883 490.241 651.909 490.267 647.935L505.434 647.854C505.515 629.712 504.12 613.881 526.505 611.017Z"/><path fill="#0D3952" d="M140.13 615.388C145.551 615.253 150.964 615.388 156.385 615.479C156.86 642.365 156.123 669.415 156.287 696.317C156.336 704.551 155.731 705.904 161.518 712.015C175.745 712.685 195.176 711.206 208.629 712.609C208.819 716.965 208.677 721.654 208.626 726.039L186.95 726.187C137.433 726.458 140.049 724.098 140.032 676.619L140.13 615.388Z"/><defs><linearGradient id="gradient_2" gradientUnits="userSpaceOnUse" x1="376.64368" y1="550.00085" x2="316.20221" y2="477.6445"><stop offset="0" stop-color="#EC8214"/><stop offset="1" stop-color="#B57D3E"/></linearGradient></defs><path fill="url(#gradient_2)" d="M353.996 518.593C365.318 517.76 407.833 512.024 411.601 500.199C410.244 489.627 384.823 489.323 382.903 482.256C383.545 480.207 383.01 481.072 384.61 479.589C391.468 477.9 441.665 491.814 431.097 505.898C422.583 517.244 396.62 521.933 383.268 524.659C347.677 530.667 310.514 531.765 274.517 529.633C270.274 529.382 263.91 529.311 260.032 527.692C258.302 526.969 262.355 521.415 263.103 520.296C267.367 513.857 324.096 517.719 334.065 519.027C339.777 519.777 348.14 517.965 353.996 518.593Z"/><path fill="#FBF2BE" d="M263.103 520.296C267.367 513.857 324.096 517.719 334.065 519.027C339.777 519.777 348.14 517.965 353.996 518.593C341.255 521.357 274.832 523.407 263.103 520.296Z"/><defs><linearGradient id="gradient_3" gradientUnits="userSpaceOnUse" x1="156.15388" y1="533.59576" x2="191.87718" y2="445.02087"><stop offset="0" stop-color="#EF6A07"/><stop offset="1" stop-color="#C2783B"/></linearGradient></defs><path fill="url(#gradient_3)" d="M218.839 461.551C222.248 461.168 232.882 459.77 234.801 462.548C231.634 469.401 212.443 470.562 205.441 471.807C192.41 474.174 179.499 477.155 166.749 480.741C158.08 483.261 140.977 489.299 136.754 497.719C135.947 499.295 135.813 501.131 136.384 502.807C139.523 511.913 152.526 514.021 160.852 513.17C171.114 512.122 179.95 518.956 173.447 529.401C168.139 534.287 155.435 534.241 148.988 532.006C146.463 531.13 139.693 524.234 137.315 522.195C131.511 517.22 121.921 512.119 120.783 503.977C120.133 499.623 121.284 495.191 123.971 491.704C126.879 487.896 131.865 484.865 135.968 482.519C159.599 469.007 192.076 464.569 218.839 461.551Z"/><path fill="#0D3952" d="M826.896 615.416C832.34 615.362 837.784 615.378 843.228 615.465C842.823 628.511 843.167 643.175 843.17 656.329L843.089 726.018L826.864 726.098C826.199 690.27 826.58 651.343 826.896 615.416Z"/><path fill="#0D3952" d="M613.094 645.372C613.635 647.05 612.776 657.238 612.622 659.594C598.279 659.775 588.62 661.156 577.408 670.991C577.604 689.346 577.649 707.701 577.544 726.056L562.163 726.102C562.017 722.744 562.053 719.033 562.013 715.643C562.001 692.902 562.118 670.161 562.363 647.422C575.244 647.041 574.545 647.11 575.967 659.78C590.547 648.629 594.673 646.108 613.094 645.372Z"/></svg>